<svg width="21" height="21" viewBox="0 0 21 21" fill="none" xmlns="http://www.w3.org/2000/svg">
<path fill-rule="evenodd" clip-rule="evenodd" d="M0.310913 10.2499C0.310912 9.83566 0.646697 9.49988 1.06091 9.49988L11.1676 9.49984C11.5818 9.49984 11.9176 9.83562 11.9176 10.2498C11.9176 10.6641 11.5819 10.9998 11.1676 10.9998L1.06092 10.9999C0.646702 10.9999 0.310915 10.6641 0.310913 10.2499Z" fill="white"/>
<path fill-rule="evenodd" clip-rule="evenodd" d="M8.55589 14.4072C8.23245 14.1484 8.18001 13.6765 8.43876 13.353L10.9211 10.2501L8.43876 7.14719C8.18001 6.82375 8.23245 6.35178 8.55589 6.09302C8.87934 5.83426 9.35131 5.8867 9.61007 6.21015L12.4172 9.71911C12.6656 10.0295 12.6656 10.4707 12.4172 10.7811L9.61007 14.29C9.35131 14.6135 8.87934 14.6659 8.55589 14.4072Z" fill="white"/>
<path fill-rule="evenodd" clip-rule="evenodd" d="M19.0605 1.5L11.0605 1.50003C10.9225 1.50003 10.8105 1.61196 10.8105 1.75003V2.39289C10.8105 2.8071 10.4748 3.14289 10.0605 3.14289C9.64633 3.14289 9.31055 2.8071 9.31055 2.39289V1.75003C9.31055 0.783532 10.094 3.03984e-05 11.0605 2.71201e-05L19.0605 0C20.027 -3.27825e-06 20.8105 0.783499 20.8105 1.75V18.75C20.8105 19.7165 20.027 20.5 19.0605 20.5H11.0605C10.094 20.5 9.31055 19.7165 9.31055 18.75V18.1072C9.31055 17.693 9.64633 17.3572 10.0605 17.3572C10.4748 17.3572 10.8105 17.693 10.8105 18.1072V18.75C10.8105 18.8881 10.9225 19 11.0605 19H19.0605C19.1986 19 19.3105 18.8881 19.3105 18.75V1.75C19.3105 1.61193 19.1986 1.5 19.0605 1.5Z" fill="white"/>
</svg>
