<svg width="22" height="17" viewBox="0 0 22 17" fill="none" xmlns="http://www.w3.org/2000/svg">
<path fill-rule="evenodd" clip-rule="evenodd" d="M2.79048 1.5C2.09927 1.5 1.53895 2.05964 1.53895 2.75V13.75C1.53895 14.4404 2.09927 15 2.79048 15H18.8101C19.5013 15 20.0616 14.4404 20.0616 13.75V2.75C20.0616 2.05964 19.5013 1.5 18.8101 1.5H2.79048ZM0.0371094 2.75C0.0371094 1.23122 1.26983 0 2.79048 0H18.8101C20.3307 0 21.5634 1.23122 21.5634 2.75V13.75C21.5634 15.2688 20.3307 16.5 18.8101 16.5H2.79048C1.26983 16.5 0.0371094 15.2688 0.0371094 13.75V2.75Z" fill="#919299"/>
<path fill-rule="evenodd" clip-rule="evenodd" d="M0.615183 3.9743C0.798035 3.60252 1.24802 3.44918 1.62025 3.63181L10.6904 8.08189C10.76 8.11604 10.8416 8.11604 10.9112 8.08189L19.9813 3.63181C20.3536 3.44918 20.8036 3.60252 20.9864 3.9743C21.1693 4.34608 21.0157 4.79552 20.6435 4.97814L11.5733 9.42823C11.0861 9.66727 10.5155 9.66727 10.0283 9.42823L0.95809 4.97814C0.585856 4.79552 0.432331 4.34608 0.615183 3.9743Z" fill="#919299"/>
<path fill-rule="evenodd" clip-rule="evenodd" d="M14.4226 8.37716C14.3476 8.32278 14.2487 8.31425 14.1654 8.35498L11.5713 9.62456C11.0849 9.86258 10.5157 9.86258 10.0294 9.62456L7.43521 8.35498C7.35198 8.31425 7.25303 8.32278 7.17802 8.37716L1.22921 12.6903C0.8936 12.9336 0.424028 12.8591 0.180397 12.5239C-0.0632338 12.1887 0.0113333 11.7197 0.346948 11.4764L6.29576 7.16328C6.82078 6.78262 7.51344 6.72287 8.09604 7.00799L10.6902 8.27757C10.7597 8.31157 10.841 8.31157 10.9105 8.27757L13.5046 7.00799C14.0872 6.72287 14.7799 6.78262 15.3049 7.16328L21.2537 11.4764C21.5893 11.7197 21.6639 12.1887 21.4202 12.5239C21.1766 12.8591 20.707 12.9336 20.3714 12.6903L14.4226 8.37716Z" fill="#919299"/>
</svg>
