<svg width="25" height="16" viewBox="0 0 25 16" fill="none" xmlns="http://www.w3.org/2000/svg">
<path fill-rule="evenodd" clip-rule="evenodd" d="M6.42802 1.67442C5.65644 1.67442 5.03096 2.29914 5.03096 3.06977C5.03096 3.8404 5.65644 4.46512 6.42802 4.46512C7.19959 4.46512 7.82507 3.8404 7.82507 3.06977C7.82507 2.29914 7.19959 1.67442 6.42802 1.67442ZM3.35449 3.06977C3.35449 1.37438 4.73056 0 6.42802 0C8.12548 0 9.50154 1.37438 9.50154 3.06977C9.50154 4.76515 8.12548 6.13953 6.42802 6.13953C4.73056 6.13953 3.35449 4.76515 3.35449 3.06977Z" fill="#B0A074"/>
<path fill-rule="evenodd" clip-rule="evenodd" d="M1.2766 10.255C2.27024 8.87663 3.91895 7.81395 6.42744 7.81395C8.93593 7.81395 10.5846 8.87663 11.5783 10.255C12.5411 11.5907 12.8539 13.1683 12.8539 14.2326C12.8539 14.6949 12.4786 15.0698 12.0157 15.0698H0.839211C0.376267 15.0698 0.000976562 14.6949 0.000976562 14.2326C0.000976562 13.1683 0.313734 11.5907 1.2766 10.255ZM1.75421 13.3953H11.1007C10.9811 12.709 10.7112 11.9179 10.2178 11.2334C9.53493 10.2862 8.38953 9.48837 6.42744 9.48837C4.46534 9.48837 3.31994 10.2862 2.63711 11.2334C2.14367 11.9179 1.87378 12.709 1.75421 13.3953Z" fill="#B0A074"/>
<path fill-rule="evenodd" clip-rule="evenodd" d="M16.4856 1.67442C15.7141 1.67442 15.0886 2.29914 15.0886 3.06977C15.0886 3.8404 15.7141 4.46512 16.4856 4.46512C17.2572 4.46512 17.8827 3.8404 17.8827 3.06977C17.8827 2.29914 17.2572 1.67442 16.4856 1.67442ZM13.4121 3.06977C13.4121 1.37438 14.7882 0 16.4856 0C18.1831 0 19.5592 1.37438 19.5592 3.06977C19.5592 4.76515 18.1831 6.13953 16.4856 6.13953C14.7882 6.13953 13.4121 4.76515 13.4121 3.06977Z" fill="#B0A074"/>
<path fill-rule="evenodd" clip-rule="evenodd" d="M14.5746 7.87738C14.9352 7.83138 15.3851 7.81395 15.9277 7.81395C18.5859 7.81395 20.6068 8.83769 21.962 10.1411C23.2826 11.4113 24.0297 13.0111 24.0297 14.2326C24.0297 14.6949 23.6544 15.0698 23.1915 15.0698H15.3001C14.8372 15.0698 14.4619 14.6949 14.4619 14.2326C14.4619 12.5724 13.9213 11.4754 13.4982 10.6168C13.4101 10.4381 13.3271 10.2697 13.2552 10.1087C13.1593 9.89421 13.0347 9.58883 13.0242 9.26724C13.0183 9.08801 13.0462 8.88134 13.1477 8.67597C13.25 8.46867 13.4021 8.31369 13.5673 8.20203C13.8661 8.00002 14.2378 7.92036 14.5746 7.87738ZM16.0983 13.3953C15.9392 11.7462 15.343 10.5528 14.9774 9.82101C14.9245 9.71518 14.8765 9.619 14.8353 9.53249C15.0873 9.50374 15.44 9.48837 15.9277 9.48837C18.1254 9.48837 19.7364 10.3251 20.7991 11.3472C21.5151 12.0359 21.9584 12.7823 22.1801 13.3953H16.0983Z" fill="#B0A074"/>
</svg>
