<svg width="25" height="25" viewBox="0 0 25 25" fill="none" xmlns="http://www.w3.org/2000/svg">
<path fill-rule="evenodd" clip-rule="evenodd" d="M6.8781 1.14764C7.71124 0.599811 8.76902 0.915151 9.24691 1.71066L11.3493 5.21033C11.8306 6.01156 11.5968 7.04913 10.8182 7.56715L9.35317 8.54185C9.23517 8.62036 9.21688 8.76365 9.28424 8.86003C9.9895 9.86912 11.2061 11.5304 12.2413 12.5644C13.2766 13.5984 14.9402 14.8137 15.9505 15.518C16.0469 15.5853 16.1904 15.567 16.269 15.4492L17.2457 13.986C17.7645 13.2087 18.803 12.9755 19.605 13.4561L23.109 15.556C23.9057 16.0334 24.2213 17.0902 23.6725 17.9223C23.3027 18.4829 22.7483 19.2482 22.0765 19.9336C21.4177 20.6058 20.5765 21.2736 19.6236 21.5286C18.282 21.8877 16.695 21.431 15.5538 20.9772C14.369 20.5061 13.4564 19.9509 13.3789 19.9033L13.3743 19.9005L13.3633 19.8935L13.3538 19.8874L13.3521 19.8863C13.2457 19.8161 10.2566 17.843 8.60626 16.1947C6.95598 14.5464 4.98107 11.5618 4.91097 11.4557L4.90932 11.4532L4.90316 11.4438L4.89618 11.4327L4.89338 11.4282C4.84584 11.3509 4.28983 10.4394 3.8181 9.25602C3.36375 8.11623 2.90641 6.53101 3.26611 5.19099C3.52162 4.23915 4.1905 3.39906 4.86372 2.74117C5.55022 2.07032 6.31673 1.51677 6.8781 1.14764ZM7.82736 2.37958C7.78434 2.36871 7.74358 2.37443 7.70393 2.40051C7.18533 2.74151 6.50557 3.23528 5.91403 3.81334C5.30922 4.40437 4.86829 5.01478 4.71672 5.57943C4.49386 6.40963 4.76998 7.58877 5.21341 8.70116C5.62571 9.73545 6.11298 10.5447 6.16871 10.636C6.30081 10.8354 8.16448 13.6321 9.66822 15.1341C11.172 16.636 13.9723 18.4975 14.172 18.6295C14.2636 18.6852 15.0738 19.1718 16.1093 19.5836C17.223 20.0264 18.4036 20.3022 19.2349 20.0797C19.8002 19.9284 20.4115 19.4882 21.0033 18.8843C21.5822 18.2937 22.0767 17.615 22.4183 17.0971C22.4445 17.0575 22.4502 17.0168 22.4393 16.9738C22.4277 16.9279 22.3955 16.8777 22.3364 16.8422L18.8323 14.7423C18.7178 14.6737 18.5694 14.707 18.4953 14.818L17.5186 16.2813C16.9863 17.0787 15.8974 17.3103 15.0908 16.748C14.0816 16.0444 12.3184 14.7627 11.1793 13.625C10.0404 12.4875 8.75727 10.7266 8.05276 9.71861C7.48957 8.91279 7.72174 7.82493 8.52057 7.29346L9.9856 6.31876C10.0968 6.24476 10.1302 6.09654 10.0615 5.98207L7.95909 2.4824C7.92359 2.4233 7.87328 2.39118 7.82736 2.37958Z" fill="#56597A"/>
<path fill-rule="evenodd" clip-rule="evenodd" d="M14.0742 5.24647C14.1253 4.83541 14.5003 4.54356 14.9119 4.5946L14.8194 5.33888C14.9119 4.5946 14.9122 4.59464 14.9125 4.59467L14.9131 4.59475L14.9145 4.59493L14.9178 4.59535L14.9263 4.59649L14.9509 4.60003C14.9707 4.60299 14.9972 4.60721 15.03 4.613C15.0955 4.62458 15.1861 4.64244 15.2989 4.66907C15.5244 4.72229 15.8388 4.81068 16.2171 4.9542C16.9741 5.24138 17.9876 5.74956 19.0547 6.63772C20.1229 7.52681 20.7462 8.38171 21.1053 9.03754C21.2844 9.36455 21.3965 9.6397 21.4654 9.84186C21.4998 9.94288 21.5234 10.0256 21.5392 10.0873C21.547 10.1181 21.553 10.1437 21.5573 10.1638L21.5626 10.1896L21.5645 10.1993L21.5653 10.2034L21.5656 10.2052L21.5657 10.2061C21.5658 10.2065 21.5659 10.2069 20.8267 10.3389L21.5659 10.2069C21.6389 10.6146 21.3671 11.0043 20.9589 11.0772C20.5536 11.1495 20.1662 10.8826 20.0891 10.4798C20.0886 10.4771 20.0869 10.4697 20.0839 10.4578C20.0775 10.4327 20.065 10.3877 20.0436 10.3251C20.0011 10.2001 19.9231 10.0046 19.7877 9.75734C19.5179 9.26471 19.0148 8.5571 18.0932 7.79005C17.1705 7.02206 16.3067 6.59274 15.6838 6.35646C15.3722 6.23824 15.1211 6.16841 14.9535 6.12885C14.8697 6.10908 14.807 6.0969 14.7682 6.09004C14.7488 6.08661 14.7354 6.08452 14.7284 6.08346L14.7229 6.08268C14.3134 6.02977 14.0232 5.65623 14.0742 5.24647Z" fill="#56597A"/>
<path fill-rule="evenodd" clip-rule="evenodd" d="M14.0767 1.22835C14.1378 0.81866 14.5198 0.536024 14.93 0.597066L14.8194 1.33888C14.93 0.597066 14.9304 0.597118 14.9308 0.597172L14.9315 0.597288L14.9333 0.59755L14.9374 0.598198L14.9487 0.600008L14.9827 0.605868C15.0104 0.610839 15.048 0.618032 15.095 0.627996C15.1889 0.647922 15.3203 0.678944 15.4845 0.725467C15.813 0.818512 16.273 0.973612 16.8275 1.22602C17.9377 1.73143 19.4216 2.62483 20.9822 4.18355C22.5429 5.74226 23.4374 7.22438 23.9434 8.33322C24.1961 8.887 24.3514 9.34647 24.4446 9.67454C24.4911 9.83858 24.5222 9.9698 24.5421 10.0636C24.5521 10.1105 24.5593 10.1481 24.5643 10.1757L24.5702 10.2097L24.572 10.221L24.5726 10.2251L24.5729 10.2269L24.573 10.2276C24.5731 10.228 24.5731 10.2284 23.8304 10.3389L24.5731 10.2284C24.6342 10.638 24.3512 11.0196 23.9411 11.0807C23.532 11.1416 23.151 10.8607 23.0882 10.4529C23.0882 10.4529 23.0882 10.4529 23.0882 10.4529C23.0882 10.4528 23.0882 10.4528 23.0882 10.4527L23.0862 10.4412C23.0839 10.4287 23.0797 10.4065 23.0731 10.3753C23.0598 10.3129 23.0367 10.2142 22.9997 10.0838C22.9256 9.823 22.7958 9.43517 22.5768 8.95534C22.1394 7.99694 21.3444 6.66656 19.9203 5.24421C18.4962 3.82185 17.1642 3.02776 16.2046 2.59093C15.7242 2.37222 15.3359 2.24252 15.0747 2.16855C14.9442 2.13156 14.8454 2.10852 14.7829 2.09526C14.7517 2.08863 14.7295 2.08444 14.7169 2.08219M14.0767 1.22835C14.0157 1.63689 14.2969 2.01749 14.7052 2.08016L14.0767 1.22835ZM23.088 10.4517C23.088 10.4516 23.088 10.4515 23.088 10.4515L23.088 10.4516L23.088 10.4517ZM23.0879 10.4506C23.0878 10.4504 23.0878 10.4502 23.0878 10.45C23.0878 10.45 23.0878 10.45 23.0878 10.4501L23.0879 10.4506Z" fill="#56597A"/>
</svg>
