<svg width="21" height="21" viewBox="0 0 21 21" fill="none" xmlns="http://www.w3.org/2000/svg">
<path fill-rule="evenodd" clip-rule="evenodd" d="M9.99958 1.75C8.04686 1.75 6.46387 3.33299 6.46387 5.28571C6.46387 7.23844 8.04686 8.82143 9.99958 8.82143C11.9523 8.82143 13.5353 7.23844 13.5353 5.28571C13.5353 3.33299 11.9523 1.75 9.99958 1.75ZM4.96387 5.28571C4.96387 2.50457 7.21843 0.25 9.99958 0.25C12.7807 0.25 15.0353 2.50457 15.0353 5.28571C15.0353 8.06686 12.7807 10.3214 9.99958 10.3214C7.21843 10.3214 4.96387 8.06686 4.96387 5.28571Z" fill="#BEC1E6"/>
<path fill-rule="evenodd" clip-rule="evenodd" d="M2.30958 15.1661C3.86682 13.5023 6.39944 12.25 10.2857 12.25C14.172 12.25 16.7046 13.5023 18.2618 15.1661C19.7995 16.8088 20.3214 18.7847 20.3214 20.1429C20.3214 20.5571 19.9856 20.8929 19.5714 20.8929H1C0.585786 20.8929 0.25 20.5571 0.25 20.1429C0.25 18.7847 0.771956 16.8088 2.30958 15.1661ZM1.81378 19.3929H18.7576C18.6016 18.4301 18.14 17.2309 17.1667 16.1911C15.9382 14.8786 13.828 13.75 10.2857 13.75C6.74342 13.75 4.63318 14.8786 3.40471 16.1911C2.43143 17.2309 1.96986 18.4301 1.81378 19.3929Z" fill="#BEC1E6"/>
</svg>
