<svg width="22" height="22" viewBox="0 0 22 22" fill="none" xmlns="http://www.w3.org/2000/svg">
<path fill-rule="evenodd" clip-rule="evenodd" d="M10.7641 1.5C5.64925 1.5 1.50281 5.64137 1.50281 10.75C1.50281 15.8586 5.64925 20 10.7641 20C15.879 20 20.0255 15.8586 20.0255 10.75C20.0255 5.64137 15.879 1.5 10.7641 1.5ZM0.000976562 10.75C0.000976562 4.81294 4.81981 0 10.7641 0C16.7085 0 21.5273 4.81294 21.5273 10.75C21.5273 16.6871 16.7085 21.5 10.7641 21.5C4.81981 21.5 0.000976562 16.6871 0.000976562 10.75Z" fill="#56597A"/>
<path fill-rule="evenodd" clip-rule="evenodd" d="M1.00195 7.75C1.00195 7.33579 1.33815 7 1.75287 7H19.7749C20.1896 7 20.5258 7.33579 20.5258 7.75C20.5258 8.16421 20.1896 8.5 19.7749 8.5H1.75287C1.33815 8.5 1.00195 8.16421 1.00195 7.75Z" fill="#56597A"/>
<path fill-rule="evenodd" clip-rule="evenodd" d="M1.00195 13.75C1.00195 13.3358 1.33815 13 1.75287 13H19.7749C20.1896 13 20.5258 13.3358 20.5258 13.75C20.5258 14.1642 20.1896 14.5 19.7749 14.5H1.75287C1.33815 14.5 1.00195 14.1642 1.00195 13.75Z" fill="#56597A"/>
<path fill-rule="evenodd" clip-rule="evenodd" d="M9.36194 1.41838C10.0376 0.430536 11.4898 0.43055 12.1655 1.41841C14.3679 4.63838 15.5194 7.66793 15.5194 10.75C15.5194 13.8321 14.3679 16.8616 12.1655 20.0816C11.4898 21.0695 10.0376 21.0695 9.36194 20.0817C7.15936 16.8617 6.0078 13.8321 6.00781 10.75C6.00782 7.66791 7.1594 4.63835 9.36194 1.41838ZM10.9254 2.26454C10.846 2.1485 10.6814 2.14849 10.602 2.26454C8.50693 5.32741 7.50966 8.06499 7.50965 10.75C7.50964 13.435 8.50688 16.1726 10.602 19.2355C10.6814 19.3515 10.846 19.3515 10.9254 19.2355C13.0203 16.1726 14.0175 13.435 14.0175 10.75C14.0175 8.06498 13.0204 5.3274 10.9254 2.26454Z" fill="#56597A"/>
</svg>
